<?xml version="1.0" encoding="UTF-8" standalone="no"?>
<!-- Created with Inkscape (http://www.inkscape.org/) -->

<svg
   xmlns:dc="http://purl.org/dc/elements/1.1/"
   xmlns:cc="http://creativecommons.org/ns#"
   xmlns:rdf="http://www.w3.org/1999/02/22-rdf-syntax-ns#"
   xmlns:svg="http://www.w3.org/2000/svg"
   xmlns="http://www.w3.org/2000/svg"
   xmlns:sodipodi="http://sodipodi.sourceforge.net/DTD/sodipodi-0.dtd"
   xmlns:inkscape="http://www.inkscape.org/namespaces/inkscape"
   width="744.09448819"
   height="1052.3622047"
   id="svg2"
   version="1.1"
   inkscape:version="0.48.4 r9939"
   sodipodi:docname="PhoneStreamerConfig.svg">
  <defs
     id="defs4" />
  <sodipodi:namedview
     id="base"
     pagecolor="#ffffff"
     bordercolor="#666666"
     borderopacity="1.0"
     inkscape:pageopacity="0.0"
     inkscape:pageshadow="2"
     inkscape:zoom="0.7"
     inkscape:cx="119.08935"
     inkscape:cy="569.20122"
     inkscape:document-units="px"
     inkscape:current-layer="layer1"
     showgrid="false"
     inkscape:window-width="1236"
     inkscape:window-height="700"
     inkscape:window-x="56"
     inkscape:window-y="45"
     inkscape:window-maximized="0" />
  <metadata
     id="metadata7">
    <rdf:RDF>
      <cc:Work
         rdf:about="">
        <dc:format>image/svg+xml</dc:format>
        <dc:type
           rdf:resource="http://purl.org/dc/dcmitype/StillImage" />
        <dc:title></dc:title>
      </cc:Work>
    </rdf:RDF>
  </metadata>
  <g
     inkscape:label="Layer 1"
     inkscape:groupmode="layer"
     id="layer1">
    <g
       id="g3010"
       transform="matrix(0.27245829,0,0,0.27245829,19.844954,28.50641)">
      <path
         style="fill:#009b0b"
         d="m 27.276723,387.68182 0,-348.499998 348.499997,0 348.50001,0 0,348.499998 0,348.5 -348.50001,0 -348.499997,0 0,-348.5 z M 494.06613,626.14984 c 19.5215,-2.07462 42.269,-9.0345 59.2106,-18.11621 16.5046,-8.84743 39.198,-26.19615 39.7625,-30.39776 0.354,-2.63412 -8.3429,-13.98334 -16.2104,-21.15429 -3.4998,-3.18987 -14.5611,-10.97476 -24.5808,-17.29976 -10.0198,-6.325 -22.9998,-14.54587 -28.8445,-18.26861 -12.9792,-8.26695 -29.90511,-16.75432 -40.62681,-20.37202 -6.98546,-2.35703 -9.64863,-2.7095 -21,-2.77936 -12.94957,-0.0797 -13.03491,-0.065 -22,3.78605 -21.66206,9.3052 -26.70254,10.24725 -37.5685,7.0215 -20.28235,-6.02116 -50.35984,-30.40468 -90.71778,-73.54401 -36.53553,-39.05347 -51.94243,-60.10757 -56.81793,-77.64378 -2.22685,-8.00954 -1.30767,-13.37781 3.65453,-21.34347 10.13777,-16.27383 10.45072,-17.16887 10.43958,-29.8563 -0.0124,-14.08156 -1.67236,-19.37073 -13.96614,-44.5 -13.99935,-28.61557 -28.8803,-50.65584 -46.48874,-68.85478 -9.77363,-10.10138 -22.71993,-19.64522 -26.64893,-19.64522 -2.72856,0 -9.95199,5.68033 -17.94342,14.11028 -19.94282,21.03714 -27.73646,46.91924 -27.82048,92.38972 -0.0324,17.53099 0.3234,22.9188 2.15386,32.61566 10.13329,53.68136 41.04038,112.96081 89.09559,170.88434 13.0348,15.71155 49.82541,52.40867 65.47783,65.31146 33.49977,27.61491 68.01357,48.54216 102.50625,62.1541 20.8689,8.23556 40.79853,13.06062 65.64428,15.8928 6.8241,0.77789 24.21568,0.57396 33.28941,-0.39034 z m 24.2763,-224.0032 c 2.398,-1.28337 2.5212,-6.76349 0.4943,-21.98686 -4.7566,-35.72412 -19.5526,-65.35135 -45.45181,-91.01172 -20.74748,-20.55617 -46.96707,-34.87732 -75.09322,-41.01594 -10.56079,-2.30492 -31.90504,-4.44569 -35.45122,-3.55566 l -2.56376,0.64346 0,18.28095 c 0,12.88518 0.35419,18.63514 1.2,19.48095 0.67397,0.67397 3.90422,1.2 7.36901,1.2 27.21812,0 59.30025,14.36995 79.48778,35.60348 18.08382,19.02081 29.94309,45.09994 31.51245,69.29749 0.73363,11.3116 1.10253,12.8665 3.18144,13.40984 3.64492,0.95261 33.43393,0.66076 35.31503,-0.34599 z m -72.07098,-1.45847 c 3.04246,-3.66595 -1.71953,-25.2838 -8.43235,-38.28001 -13.13351,-25.42687 -37.66292,-41.87526 -66.67597,-44.7101 -9.27276,-0.90604 -10.36605,0.28142 -9.51614,10.3358 0.34635,4.09734 0.62973,12.09825 0.62973,17.77979 0,9.92419 0.0884,10.34622 2.25,10.74114 1.2375,0.22609 4.87471,0.89371 8.08268,1.4836 18.06554,3.32192 32.01838,17.88228 34.49584,35.99781 0.47998,3.50972 1.49288,6.73567 2.26922,7.22719 0.77124,0.48829 9.10966,0.8947 18.52982,0.90312 13.98559,0.0125 17.35495,-0.25869 18.36717,-1.47834 z m 153.03338,-0.0403 c 0.9609,-1.15776 1.1127,-4.5343 0.619,-13.76897 -4.5355,-84.83882 -55.4371,-161.37145 -132.14711,-198.68827 -29.55343,-14.37675 -58.12151,-21.69271 -92.21838,-23.61609 l -12.21839,-0.68923 -1.09586,2.88235 c -1.6244,4.27248 -0.88965,35.23037 0.86178,36.3104 0.73102,0.45079 6.80602,1.07918 13.5,1.39642 76.87622,3.64333 146.72136,55.98822 172.69916,129.42811 6.4495,18.23285 9.6793,34.32326 10.8603,54.10418 0.5379,9.00811 1.1228,12.56977 2.1736,13.23469 0.7908,0.50035 9.1452,0.91663 18.5653,0.92505 14.186,0.0127 17.3462,-0.24814 18.4006,-1.5186 z"
         id="path2986"
         inkscape:connector-curvature="0" />
      <path
         sodipodi:nodetypes="sscscccsscscsssscccsscssssccsssssccscssccscssscsssscsscs"
         style="fill:#333333"
         d="M 219.8579,671.85938 C 201.67121,651.0966 204.88826,653.12772 188.56237,652.10112 l -8.24445,-0.51849 -18.30785,15.4147 c -13.21879,11.1297 -18.71803,15.30739 -19.78343,15.02873 -0.81155,-0.21226 -6.60558,-3.33904 -12.87562,-6.9483 -9.4968,-5.4668 -11.40469,-6.86884 -11.42768,-8.39793 -0.0152,-1.00955 1.73908,-11.49017 3.89834,-23.29028 2.15926,-11.80026 3.92591,-22.11739 3.92591,-22.92684 0,-1.97686 -12.23928,-19.66594 -13.95509,-20.16894 -0.7458,-0.21858 -11.24933,-2.39803 -23.341168,-4.84318 -12.09185,-2.44514 -22.33814,-4.77816 -22.76956,-5.18449 -0.94877,-0.89353 -5.12984,-28.32882 -4.42415,-29.03024 0.27359,-0.2719 9.94217,-5.57033 21.48575,-11.77431 16.21056,-8.71217 21.162148,-11.72759 21.751928,-13.24639 0.41997,-1.0815 2.04291,-6.09655 3.60651,-11.14458 l 2.84292,-9.17819 -11.124718,-21.66502 -11.12474,-21.66499 2.80799,-3.31231 c 1.5444,-1.82177 6.08284,-6.78277 10.085418,-11.02445 l 7.27745,-7.71215 22.1222,9.47882 c 12.16722,5.21333 22.57857,9.4788 23.13634,9.4788 1.91284,0 19.91121,-7.26272 21.16137,-8.53905 0.68728,-0.70166 5.60234,-10.90408 10.92235,-22.67202 5.32001,-11.76797 10.05769,-21.38893 10.52817,-21.37995 3.86955,0.0739 28.21258,2.34578 28.52935,2.66253 0.22342,0.22344 3.01271,9.8704 6.19839,21.43774 3.18571,11.56733 6.14431,22.09149 6.57471,23.38706 0.62604,1.88437 2.54141,3.37642 9.57559,7.45925 4.83617,2.80704 9.37871,5.33914 10.09453,5.62689 0.71583,0.28777 11.68563,-2.08766 24.37734,-5.27872 12.69168,-3.19106 23.33516,-5.8115 23.65214,-5.82321 0.80896,-0.0298 16.30814,23.27559 16.2916,24.49698 -0.007,0.55015 -6.00013,9.21236 -13.31708,19.24938 -7.31695,10.03702 -13.64586,18.88878 -14.06425,19.67052 -0.67585,1.26281 1.18043,17.12324 2.63799,22.53959 0.23478,0.87242 8.96923,8.02638 19.65236,16.09628 10.57635,7.98926 19.2233,14.70259 19.2154,14.9185 -0.0765,2.0963 -8.72087,27.21436 -9.51997,27.66246 -0.58166,0.32625 -11.60655,1.04705 -24.49974,1.60185 l -23.44218,1.00876 -6.84384,7.05547 c -3.76412,3.88035 -7.40285,7.93384 -8.08611,9.00787 -1.09629,1.72295 -1.1744,4.72019 -0.66487,25.50801 0.31755,12.95552 0.35024,23.82449 0.0726,24.15339 -0.42625,0.50486 -26.20246,10.7873 -27.04191,10.7873 -0.15747,0 -7.47931,-8.2119 -16.27074,-18.24859 z m -9.25657,-76.44106 c 10.95091,-3.21659 20.16029,-10.66155 25.16319,-20.34224 3.56621,-6.90076 4.74263,-11.71448 4.7434,-19.40938 7.8e-4,-11.44925 -4.25696,-21.20892 -12.74812,-29.21907 -16.55668,-15.61866 -40.83672,-15.25826 -56.98993,0.84596 -25.44122,25.36414 -7.24636,69.10873 28.83887,69.33518 3.97783,0.0251 8.47107,-0.46979 10.99259,-1.21045 z"
         id="path3803"
         inkscape:connector-curvature="0" />
    </g>
    <path
       inkscape:connector-curvature="0"
       id="path2986-7"
       d="m 249.51394,131.57894 0,-94.951717 94.95171,0 94.95172,0 0,94.951717 0,94.95171 -94.95172,0 -94.95171,0 0,-94.95171 z m 127.18064,64.97259 c 5.3188,-0.56525 11.51654,-2.46153 16.13242,-4.93592 4.49682,-2.41055 10.67982,-7.13735 10.83362,-8.28212 0.0965,-0.71769 -2.27309,-3.80987 -4.41665,-5.76366 -0.95355,-0.86911 -3.9673,-2.99016 -6.69725,-4.71346 -2.72997,-1.7233 -6.26648,-3.96315 -7.85892,-4.97744 -3.53629,-2.2524 -8.14789,-4.56485 -11.06911,-5.55052 -1.90325,-0.64219 -2.62885,-0.73823 -5.72162,-0.75726 -3.52822,-0.0217 -3.55147,-0.0177 -5.99409,1.03154 -5.902,2.53528 -7.27533,2.79195 -10.23585,1.91306 -5.52609,-1.64051 -13.72095,-8.284 -24.71681,-20.03767 -9.95441,-10.64044 -14.15214,-16.37681 -15.48051,-21.15469 -0.60673,-2.18227 -0.35629,-3.6449 0.9957,-5.81521 2.76212,-4.43394 2.84739,-4.6778 2.84435,-8.13459 -0.003,-3.83664 -0.45564,-5.27772 -3.80519,-12.124398 -3.81424,-7.796549 -7.86867,-13.801603 -12.66624,-18.760055 -2.66291,-2.752205 -6.19023,-5.352503 -7.26072,-5.352503 -0.74342,0 -2.7115,1.547653 -4.88883,3.844462 -5.43359,5.731743 -7.55703,12.783536 -7.57993,25.172344 -0.009,4.77646 0.0881,6.24442 0.58684,8.88641 2.7609,14.62593 11.18179,30.77711 24.27483,46.55885 3.55144,4.28075 13.57535,14.27918 17.83998,17.79465 9.12729,7.52391 18.53086,13.22572 27.92868,16.9344 5.6859,2.24385 11.1159,3.55848 17.88533,4.33013 1.85928,0.21194 6.59776,0.15638 9.06997,-0.10635 z M 383.30886,135.52 c 0.65336,-0.34967 0.68692,-1.84277 0.13468,-5.99051 -1.29598,-9.73333 -5.32727,-17.80551 -12.38372,-24.79689 -5.65283,-5.600702 -12.79657,-9.502618 -20.45977,-11.175136 -2.87738,-0.627994 -8.6928,-1.211265 -9.65898,-0.968769 l -0.69852,0.175316 0,4.980796 c 0,3.510673 0.0965,5.077303 0.32695,5.307743 0.18363,0.18363 1.06374,0.32695 2.00775,0.32695 7.4158,0 16.15684,3.91522 21.6571,9.70047 4.92709,5.18237 8.15824,12.28785 8.58583,18.88067 0.19988,3.08194 0.30039,3.50559 0.86681,3.65362 0.99309,0.25955 9.10935,0.18003 9.62187,-0.0943 z m -19.63633,-0.39738 c 0.82894,-0.99881 -0.4685,-6.88878 -2.29747,-10.4297 -3.57833,-6.92776 -10.26157,-11.40926 -18.16642,-12.18164 -2.52644,-0.24686 -2.82431,0.0767 -2.59275,2.81608 0.0944,1.11635 0.17158,3.29626 0.17158,4.84425 0,2.70392 0.0241,2.81891 0.61303,2.92651 0.33716,0.0616 1.32815,0.2435 2.20219,0.40422 4.92211,0.90508 8.72367,4.87217 9.39868,9.8079 0.13077,0.95625 0.40675,1.83519 0.61827,1.96911 0.21013,0.13304 2.482,0.24377 5.0486,0.24606 3.81049,0.003 4.7285,-0.0705 5.00429,-0.40279 z m 41.69521,-0.011 c 0.2618,-0.31544 0.30316,-1.2354 0.16865,-3.75147 -1.23573,-23.11504 -15.1043,-43.966985 -36.00457,-54.134262 -8.05208,-3.917064 -15.83569,-5.910358 -25.12567,-6.434399 l -3.329,-0.187787 -0.29857,0.78532 c -0.44259,1.164073 -0.2424,9.598807 0.23479,9.89307 0.19918,0.122821 1.85436,0.294032 3.67819,0.380466 20.94556,0.992656 39.97545,15.254455 47.05332,35.263762 1.75722,4.96769 2.6372,9.35166 2.95898,14.74113 0.14655,2.45434 0.30591,3.42474 0.59221,3.6059 0.21546,0.13633 2.49169,0.24975 5.05827,0.25204 3.8651,0.003 4.72612,-0.0676 5.0134,-0.41375 z"
       style="fill:#009b0b" />
    <path
       inkscape:connector-curvature="0"
       id="path2986-7-0"
       d="m 165.14773,605.91156 c 6.239,-0.66305 13.50901,-2.8874 18.92347,-5.78988 5.27481,-2.8276 12.52753,-8.37218 12.70794,-9.715 0.11319,-0.84186 -2.66636,-4.46901 -5.18077,-6.76082 -1.11853,-1.01948 -4.65368,-3.50749 -7.85594,-5.52893 -3.20228,-2.02145 -7.35063,-4.64881 -9.21858,-5.83858 -4.1481,-2.64209 -9.55755,-5.35461 -12.98416,-6.51081 -2.23253,-0.7533 -3.08367,-0.86595 -6.71151,-0.88828 -4.13864,-0.0254 -4.16591,-0.0208 -7.03112,1.21001 -6.9231,2.97391 -8.53403,3.27498 -12.00674,2.24404 -6.48216,-1.92434 -16.0948,-9.71721 -28.99304,-23.50437 -11.676612,-12.48133 -16.600582,-19.21014 -18.158782,-24.81463 -0.7117,-2.55983 -0.41794,-4.2755 1.16797,-6.8213 3.23999,-5.20105 3.34002,-5.4871 3.33645,-9.54194 -0.004,-4.50041 -0.53447,-6.19081 -4.46353,-14.22203 -4.47414,-9.14542 -9.23002,-16.1894 -14.85761,-22.0057 -3.12362,-3.22837 -7.26119,-6.27854 -8.51689,-6.27854 -0.87204,0 -3.18061,1.81542 -5.73464,4.50958 -6.37365,6.7234 -8.86446,14.99521 -8.89132,29.52739 -0.0106,5.60283 0.10334,7.32476 0.68837,10.42384 3.23856,17.15634 13.11633,36.10182 28.47458,54.61394 4.16587,5.02135 15.92402,16.7496 20.926462,20.87328 10.7064,8.82561 21.73687,15.51388 32.76059,19.8642 6.66961,2.63205 13.03905,4.17412 20.97965,5.07928 2.18095,0.2486 7.73923,0.18343 10.63915,-0.12475 z m 7.75861,-71.59052 c 0.7664,-0.41017 0.80577,-2.16159 0.15798,-7.02692 -1.52019,-11.41728 -6.24893,-20.88602 -14.52621,-29.08697 -6.63082,-6.56967 -15.01049,-11.14666 -23.99949,-13.10854 -3.37519,-0.73664 -10.19673,-1.42082 -11.33007,-1.13638 l -0.81937,0.20566 0,5.84252 c 0,4.11805 0.1132,5.95572 0.38352,6.22602 0.2154,0.2154 1.24778,0.38352 2.35511,0.38352 8.6988,0 18.95211,4.59259 25.40397,11.37874 5.77951,6.07896 9.56968,14.41375 10.07125,22.14719 0.23446,3.61514 0.35236,4.11208 1.01677,4.28572 1.16491,0.30446 10.68535,0.21118 11.28654,-0.11061 z m -23.03358,-0.46613 c 0.97235,-1.17162 -0.54956,-8.0806 -2.69496,-12.23413 -4.19741,-8.12633 -12.03691,-13.38316 -21.30937,-14.28917 -2.96353,-0.28957 -3.31294,0.09 -3.04132,3.30328 0.11074,1.30949 0.20127,3.86655 0.20127,5.68235 0,3.17172 0.0283,3.30661 0.71909,3.43282 0.39549,0.0723 1.55793,0.28563 2.58319,0.47416 5.77368,1.06166 10.23294,5.71509 11.02473,11.50475 0.1534,1.12169 0.47712,2.15269 0.72524,2.30978 0.24648,0.15606 2.91141,0.28595 5.92205,0.28863 4.46973,0.004 5.54657,-0.0827 5.87008,-0.47247 z m 48.90884,-0.0129 c 0.3071,-0.37001 0.35561,-1.44913 0.19783,-4.4005 -1.44952,-27.11415 -17.71748,-51.57367 -42.23368,-63.49996 -9.44516,-4.59476 -18.5754,-6.93291 -29.47263,-7.54761 l -3.90494,-0.22028 -0.35023,0.92119 c -0.51916,1.36546 -0.28434,11.25948 0.27541,11.60465 0.23364,0.14407 2.17518,0.3449 4.31455,0.4463 24.56933,1.16439 46.89155,17.8936 55.19396,41.3647 2.06123,5.82714 3.09346,10.96958 3.47091,17.29147 0.1719,2.87896 0.35883,4.01725 0.69466,4.22975 0.25274,0.15992 2.92278,0.29296 5.9334,0.29565 4.5338,0.004 5.54378,-0.0793 5.88076,-0.48533 z"
       style="fill:#ff0000"
       sodipodi:nodetypes="sscsssssssssscsssscsssssscsssscscsssccccsscssssscccssscccssscccc"
       inkscape:export-filename="C:\Devel\sip\PhoneStreamerConfig\resources\call.png"
       inkscape:export-xdpi="28.944723"
       inkscape:export-ydpi="28.944723" />
    <path
       inkscape:connector-curvature="0"
       id="path2986-7-0-4"
       d="m 278.52107,527.7424 c -3.9428,4.88048 -7.51061,11.594 -9.28685,17.47497 -1.73044,5.72927 -2.93828,14.77832 -2.11632,15.85541 0.51523,0.67532 5.04546,1.27467 8.44398,1.11727 1.51179,-0.07 5.77081,-0.81048 9.46452,-1.64544 3.69374,-0.83497 8.48489,-1.91048 10.64703,-2.39002 4.80138,-1.06491 10.54448,-2.97193 13.78502,-4.57736 2.1113,-1.04597 2.79281,-1.56816 5.37386,-4.11765 2.94446,-2.90845 2.96043,-2.93105 4.11616,-5.82735 2.7925,-6.99824 3.71869,-8.35023 6.90327,-10.07683 5.94428,-3.22286 18.25184,-4.50963 37.12127,-3.88107 17.08223,0.56902 25.32199,1.84523 30.38678,4.7064 2.31331,1.30683 3.31876,2.72771 3.9975,5.64926 1.38668,5.96872 1.51822,6.24172 4.38795,9.1064 3.18476,3.17978 4.7555,3.99964 13.21268,6.9003 9.63048,3.3031 17.97425,4.92103 26.06631,5.05447 4.49152,0.074 9.57402,-0.69484 10.46195,-1.58275 0.61661,-0.61663 0.96532,-3.53273 0.86624,-7.24377 -0.24731,-9.26101 -4.33509,-16.87132 -14.5919,-27.16613 -3.95434,-3.96926 -5.25247,-5.1063 -7.85752,-6.88401 -14.42138,-9.84136 -34.80249,-16.25319 -58.75245,-18.48331 -6.49635,-0.60492 -23.10374,-0.58378 -29.55688,0.0377 -13.81122,1.32992 -26.34026,4.40032 -37.21134,9.11913 -6.57728,2.85498 -12.17155,6.26845 -18.42645,11.24326 -1.71796,1.36637 -5.60217,5.34275 -7.43481,7.61123 z"
       style="fill:#ff0000"
       sodipodi:nodetypes="sscsssssssssscsssscssssss"
       inkscape:export-filename="C:\Devel\sip\PhoneStreamerConfig\resources\hangup.png"
       inkscape:export-xdpi="28.944723"
       inkscape:export-ydpi="28.944723" />
    <rect
       style="fill:none;stroke:#000000;stroke-width:1;stroke-linejoin:round;stroke-miterlimit:4;stroke-opacity:1;stroke-dasharray:none;stroke-dashoffset:0"
       id="rect2988"
       width="199"
       height="199"
       x="25.37274"
       y="432.68121"
       ry="0"
       inkscape:export-filename="C:\Devel\sip\PhoneStreamerConfig\resources\call.png"
       inkscape:export-xdpi="28.944723"
       inkscape:export-ydpi="28.944723" />
    <rect
       style="fill:none;stroke:#000000;stroke-width:1;stroke-linejoin:round;stroke-miterlimit:4;stroke-opacity:1;stroke-dasharray:none;stroke-dashoffset:0"
       id="rect2988-1"
       width="199"
       height="199"
       x="260.1116"
       y="431.25266"
       ry="0"
       inkscape:export-filename="C:\Devel\sip\PhoneStreamerConfig\resources\hangup.png"
       inkscape:export-xdpi="28.944723"
       inkscape:export-ydpi="28.944723" />
  </g>
</svg>
